<?xml version="1.0" encoding="utf-8"?>
<!-- Generator: Adobe Illustrator 16.0.0, SVG Export Plug-In . SVG Version: 6.00 Build 0)  -->
<!DOCTYPE svg PUBLIC "-//W3C//DTD SVG 1.1//EN" "http://www.w3.org/Graphics/SVG/1.1/DTD/svg11.dtd">
<svg version="1.1" id="Layer_1" xmlns="http://www.w3.org/2000/svg" xmlns:xlink="http://www.w3.org/1999/xlink" x="0px" y="0px"
	 width="595.279px" height="841.89px" viewBox="0 0 595.279 841.89" enable-background="new 0 0 595.279 841.89"
	 xml:space="preserve">
<path id="icon-search" fill="#212B32" d="M563.893,641.199L430.495,508.072c75.222-100.385,54.658-242.711-45.729-317.933
	c-100.114-74.951-242.44-54.387-317.662,45.999c-75.223,100.386-54.658,242.711,45.728,317.934
	c80.634,60.34,191.572,60.34,272.206,0l133.126,133.396c12.717,12.717,33.281,12.717,45.999,0c12.717-12.717,12.717-33.281,0-45.998
	l0,0L563.893,641.199z M86.857,372.24c0-89.563,72.516-162.079,162.35-162.079c89.833,0,162.349,72.516,162.078,162.349
	c0,89.563-72.516,162.079-162.078,162.079s-162.35-72.516-162.35-162.079l0,0V372.24z"/>
</svg>
